G04 #@! TF.FileFunction,Soldermask,Top*
%FSLAX46Y46*%
G04 Gerber Fmt 4.6, Leading zero omitted, Abs format (unit mm)*
G04 Created by KiCad (PCBNEW no-vcs-found-product) date Wed 28 Oct 2015 12:10:27 PM EDT*
%MOMM*%
G01*
G04 APERTURE LIST*
%ADD10C,0.150000*%
%ADD11C,1.524000*%
%ADD12R,1.000000X1.600000*%
%ADD13R,2.540000X2.540000*%
%ADD14C,2.540000*%
%ADD15R,1.700000X0.900000*%
%ADD16R,0.900000X1.700000*%
%ADD17R,1.524000X1.524000*%
G04 APERTURE END LIST*
D10*
D11*
X33020000Y6350000D03*
X30480000Y6350000D03*
X5080000Y2540000D03*
X0Y2540000D03*
X0Y0D03*
X2540000Y0D03*
X2540000Y2540000D03*
X5080000Y0D03*
X12700000Y2540000D03*
X12700000Y0D03*
X15240000Y0D03*
X15240000Y2540000D03*
X7620000Y2540000D03*
X10160000Y2540000D03*
X7620000Y0D03*
X10160000Y0D03*
X22860000Y6350000D03*
X25400000Y6350000D03*
X27940000Y6350000D03*
X35560000Y6350000D03*
D12*
X1040000Y5080000D03*
X4040000Y5080000D03*
D11*
X-15240000Y-7620000D03*
X-12700000Y-7620000D03*
X-17780000Y-7620000D03*
X-17780000Y-5080000D03*
X-15240000Y-5080000D03*
X-12700000Y-5080000D03*
X-10160000Y-5080000D03*
X-10160000Y-7620000D03*
X-20320000Y-7620000D03*
X-20320000Y-5080000D03*
X-25400000Y-7620000D03*
X-25400000Y-5080000D03*
X-27940000Y-5080000D03*
X-27940000Y-7620000D03*
X-30480000Y-7620000D03*
X-30480000Y-5080000D03*
D13*
X29210000Y-5715000D03*
D14*
X34290000Y-5715000D03*
D15*
X7620000Y-6530000D03*
X7620000Y-3630000D03*
D16*
X3990000Y-3175000D03*
X1090000Y-3175000D03*
D17*
X-3302000Y7620000D03*
X-3302000Y5080000D03*
X15240000Y7620000D03*
X15240000Y5080000D03*
D11*
X-3302000Y-5588000D03*
X-3302000Y-3048000D03*
X15240000Y-5588000D03*
X15240000Y-3048000D03*
M02*
