G04 #@! TF.FileFunction,Copper,L2,Bot,Signal*
%FSLAX46Y46*%
G04 Gerber Fmt 4.6, Leading zero omitted, Abs format (unit mm)*
G04 Created by KiCad (PCBNEW no-vcs-found-product) date Wed 28 Oct 2015 12:10:27 PM EDT*
%MOMM*%
G01*
G04 APERTURE LIST*
%ADD10C,0.150000*%
%ADD11C,1.524000*%
%ADD12R,2.540000X2.540000*%
%ADD13C,2.540000*%
%ADD14R,1.524000X1.524000*%
%ADD15C,0.500000*%
%ADD16C,0.254000*%
G04 APERTURE END LIST*
D10*
D11*
X33020000Y6350000D03*
X30480000Y6350000D03*
X5080000Y2540000D03*
X0Y2540000D03*
X0Y0D03*
X2540000Y0D03*
X2540000Y2540000D03*
X5080000Y0D03*
X12700000Y2540000D03*
X12700000Y0D03*
X15240000Y0D03*
X15240000Y2540000D03*
X7620000Y2540000D03*
X10160000Y2540000D03*
X7620000Y0D03*
X10160000Y0D03*
X22860000Y6350000D03*
X25400000Y6350000D03*
X27940000Y6350000D03*
X35560000Y6350000D03*
X-15240000Y-7620000D03*
X-12700000Y-7620000D03*
X-17780000Y-7620000D03*
X-17780000Y-5080000D03*
X-15240000Y-5080000D03*
X-12700000Y-5080000D03*
X-10160000Y-5080000D03*
X-10160000Y-7620000D03*
X-20320000Y-7620000D03*
X-20320000Y-5080000D03*
X-25400000Y-7620000D03*
X-25400000Y-5080000D03*
X-27940000Y-5080000D03*
X-27940000Y-7620000D03*
X-30480000Y-7620000D03*
X-30480000Y-5080000D03*
D12*
X29210000Y-5715000D03*
D13*
X34290000Y-5715000D03*
D14*
X-3302000Y7620000D03*
X-3302000Y5080000D03*
X15240000Y7620000D03*
X15240000Y5080000D03*
D11*
X-3302000Y-5588000D03*
X-3302000Y-3048000D03*
X15240000Y-5588000D03*
X15240000Y-3048000D03*
D15*
X15240000Y-5588000D02*
X28702000Y-5588000D01*
X28702000Y-5588000D02*
X29210000Y-5080000D01*
X15240000Y-3048000D02*
X15240000Y-5588000D01*
X-3302000Y-3048000D02*
X-3302000Y-5588000D01*
X11430000Y1270000D02*
X-21590000Y1270000D01*
X-21590000Y1270000D02*
X-27940000Y-5080000D01*
X12700000Y2540000D02*
X11430000Y1270000D01*
X-25400000Y-7620000D02*
X-22860000Y-7620000D01*
X-22860000Y-7620000D02*
X-21590000Y-6350000D01*
X-21590000Y-6350000D02*
X-6350000Y-6350000D01*
X7620000Y-7620000D02*
X15240000Y0D01*
X-5080000Y-7620000D02*
X7620000Y-7620000D01*
X-6350000Y-6350000D02*
X-5080000Y-7620000D01*
X11430000Y-1270000D02*
X12700000Y0D01*
X-19050000Y-1270000D02*
X11430000Y-1270000D01*
X-26670000Y-6350000D02*
X-24130000Y-6350000D01*
X-24130000Y-6350000D02*
X-19050000Y-1270000D01*
X-27940000Y-7620000D02*
X-26670000Y-6350000D01*
X-3302000Y7620000D02*
X-3302000Y5080000D01*
X15240000Y5080000D02*
X15240000Y7620000D01*
X15240000Y5080000D02*
X24130000Y5080000D01*
X24130000Y5080000D02*
X34290000Y-5080000D01*
D16*
G36*
X37415000Y-9475000D02*
X-33605000Y-9475000D01*
X-33605000Y-5356661D01*
X-31877242Y-5356661D01*
X-31665010Y-5870303D01*
X-31272370Y-6263629D01*
X-31064488Y-6349949D01*
X-31270303Y-6434990D01*
X-31663629Y-6827630D01*
X-31876757Y-7340900D01*
X-31877242Y-7896661D01*
X-31665010Y-8410303D01*
X-31272370Y-8803629D01*
X-30759100Y-9016757D01*
X-30203339Y-9017242D01*
X-29689697Y-8805010D01*
X-29296371Y-8412370D01*
X-29210051Y-8204488D01*
X-29125010Y-8410303D01*
X-28732370Y-8803629D01*
X-28219100Y-9016757D01*
X-27663339Y-9017242D01*
X-27149697Y-8805010D01*
X-26756371Y-8412370D01*
X-26670051Y-8204488D01*
X-26585010Y-8410303D01*
X-26192370Y-8803629D01*
X-25679100Y-9016757D01*
X-25123339Y-9017242D01*
X-24609697Y-8805010D01*
X-24309163Y-8505000D01*
X-22860005Y-8505000D01*
X-22860000Y-8505001D01*
X-22577516Y-8448810D01*
X-22521325Y-8437633D01*
X-22234210Y-8245790D01*
X-21717095Y-7728675D01*
X-21717242Y-7896661D01*
X-21505010Y-8410303D01*
X-21112370Y-8803629D01*
X-20599100Y-9016757D01*
X-20043339Y-9017242D01*
X-19529697Y-8805010D01*
X-19136371Y-8412370D01*
X-19050051Y-8204488D01*
X-18965010Y-8410303D01*
X-18572370Y-8803629D01*
X-18059100Y-9016757D01*
X-17503339Y-9017242D01*
X-16989697Y-8805010D01*
X-16596371Y-8412370D01*
X-16510051Y-8204488D01*
X-16425010Y-8410303D01*
X-16032370Y-8803629D01*
X-15519100Y-9016757D01*
X-14963339Y-9017242D01*
X-14449697Y-8805010D01*
X-14056371Y-8412370D01*
X-13970051Y-8204488D01*
X-13885010Y-8410303D01*
X-13492370Y-8803629D01*
X-12979100Y-9016757D01*
X-12423339Y-9017242D01*
X-11909697Y-8805010D01*
X-11516371Y-8412370D01*
X-11430051Y-8204488D01*
X-11345010Y-8410303D01*
X-10952370Y-8803629D01*
X-10439100Y-9016757D01*
X-9883339Y-9017242D01*
X-9369697Y-8805010D01*
X-8976371Y-8412370D01*
X-8763243Y-7899100D01*
X-8762758Y-7343339D01*
X-8807523Y-7235000D01*
X-6716580Y-7235000D01*
X-5705792Y-8245787D01*
X-5705790Y-8245790D01*
X-5459577Y-8410303D01*
X-5418675Y-8437633D01*
X-5080000Y-8505001D01*
X-5079995Y-8505000D01*
X7619995Y-8505000D01*
X7620000Y-8505001D01*
X7902484Y-8448810D01*
X7958675Y-8437633D01*
X8245790Y-8245790D01*
X8245791Y-8245789D01*
X9923366Y-6568213D01*
X14439392Y-6568213D01*
X14508857Y-6810397D01*
X15032302Y-6997144D01*
X15587368Y-6969362D01*
X15971143Y-6810397D01*
X16040608Y-6568213D01*
X15240000Y-5767605D01*
X14439392Y-6568213D01*
X9923366Y-6568213D01*
X11111277Y-5380302D01*
X13830856Y-5380302D01*
X13858638Y-5935368D01*
X14017603Y-6319143D01*
X14259787Y-6388608D01*
X15060395Y-5588000D01*
X15419605Y-5588000D01*
X16220213Y-6388608D01*
X16462397Y-6319143D01*
X16575988Y-6000750D01*
X27305000Y-6000750D01*
X27305000Y-7111310D01*
X27401673Y-7344699D01*
X27580302Y-7523327D01*
X27813691Y-7620000D01*
X28924250Y-7620000D01*
X29083000Y-7461250D01*
X29083000Y-5842000D01*
X29337000Y-5842000D01*
X29337000Y-7461250D01*
X29495750Y-7620000D01*
X30606309Y-7620000D01*
X30839698Y-7523327D01*
X31018327Y-7344699D01*
X31115000Y-7111310D01*
X31115000Y-6000750D01*
X30956250Y-5842000D01*
X29337000Y-5842000D01*
X29083000Y-5842000D01*
X27463750Y-5842000D01*
X27305000Y-6000750D01*
X16575988Y-6000750D01*
X16649144Y-5795698D01*
X16621362Y-5240632D01*
X16462397Y-4856857D01*
X16220213Y-4787392D01*
X15419605Y-5588000D01*
X15060395Y-5588000D01*
X14259787Y-4787392D01*
X14017603Y-4856857D01*
X13830856Y-5380302D01*
X11111277Y-5380302D01*
X12463366Y-4028213D01*
X14439392Y-4028213D01*
X14508857Y-4270397D01*
X14632344Y-4314453D01*
X14508857Y-4365603D01*
X14439392Y-4607787D01*
X15240000Y-5408395D01*
X16040608Y-4607787D01*
X15971143Y-4365603D01*
X15847656Y-4321547D01*
X15854553Y-4318690D01*
X27305000Y-4318690D01*
X27305000Y-5429250D01*
X27463750Y-5588000D01*
X29083000Y-5588000D01*
X29083000Y-3968750D01*
X29337000Y-3968750D01*
X29337000Y-5588000D01*
X30956250Y-5588000D01*
X31115000Y-5429250D01*
X31115000Y-4318690D01*
X31018327Y-4085301D01*
X30839698Y-3906673D01*
X30606309Y-3810000D01*
X29495750Y-3810000D01*
X29337000Y-3968750D01*
X29083000Y-3968750D01*
X28924250Y-3810000D01*
X27813691Y-3810000D01*
X27580302Y-3906673D01*
X27401673Y-4085301D01*
X27305000Y-4318690D01*
X15854553Y-4318690D01*
X15971143Y-4270397D01*
X16040608Y-4028213D01*
X15240000Y-3227605D01*
X14439392Y-4028213D01*
X12463366Y-4028213D01*
X13930458Y-2561121D01*
X13830856Y-2840302D01*
X13858638Y-3395368D01*
X14017603Y-3779143D01*
X14259787Y-3848608D01*
X15060395Y-3048000D01*
X15419605Y-3048000D01*
X16220213Y-3848608D01*
X16462397Y-3779143D01*
X16649144Y-3255698D01*
X16621362Y-2700632D01*
X16462397Y-2316857D01*
X16220213Y-2247392D01*
X15419605Y-3048000D01*
X15060395Y-3048000D01*
X15046253Y-3033858D01*
X15225858Y-2854253D01*
X15240000Y-2868395D01*
X16040608Y-2067787D01*
X15971143Y-1825603D01*
X15447698Y-1638856D01*
X14892632Y-1666638D01*
X14777076Y-1714503D01*
X15094705Y-1396874D01*
X15516661Y-1397242D01*
X16030303Y-1185010D01*
X16423629Y-792370D01*
X16636757Y-279100D01*
X16637242Y276661D01*
X16425010Y790303D01*
X16032370Y1183629D01*
X15824488Y1269949D01*
X16030303Y1354990D01*
X16423629Y1747630D01*
X16636757Y2260900D01*
X16637242Y2816661D01*
X16425010Y3330303D01*
X16072167Y3683763D01*
X16237317Y3714838D01*
X16453441Y3853910D01*
X16598431Y4066110D01*
X16624532Y4195000D01*
X23763420Y4195000D01*
X32651595Y-4693174D01*
X32385332Y-5334410D01*
X32384670Y-6092265D01*
X32674078Y-6792686D01*
X33209495Y-7329039D01*
X33909410Y-7619668D01*
X34667265Y-7620330D01*
X35367686Y-7330922D01*
X35904039Y-6795505D01*
X36194668Y-6095590D01*
X36195330Y-5337735D01*
X35905922Y-4637314D01*
X35370505Y-4100961D01*
X34670590Y-3810332D01*
X34271563Y-3809983D01*
X25508675Y4952905D01*
X25676661Y4952758D01*
X26190303Y5164990D01*
X26583629Y5557630D01*
X26669949Y5765512D01*
X26754990Y5559697D01*
X27147630Y5166371D01*
X27660900Y4953243D01*
X28216661Y4952758D01*
X28730303Y5164990D01*
X29123629Y5557630D01*
X29209949Y5765512D01*
X29294990Y5559697D01*
X29687630Y5166371D01*
X30200900Y4953243D01*
X30756661Y4952758D01*
X31270303Y5164990D01*
X31663629Y5557630D01*
X31749949Y5765512D01*
X31834990Y5559697D01*
X32227630Y5166371D01*
X32740900Y4953243D01*
X33296661Y4952758D01*
X33810303Y5164990D01*
X34203629Y5557630D01*
X34289949Y5765512D01*
X34374990Y5559697D01*
X34767630Y5166371D01*
X35280900Y4953243D01*
X35836661Y4952758D01*
X36350303Y5164990D01*
X36743629Y5557630D01*
X36956757Y6070900D01*
X36957242Y6626661D01*
X36745010Y7140303D01*
X36352370Y7533629D01*
X35839100Y7746757D01*
X35283339Y7747242D01*
X34769697Y7535010D01*
X34376371Y7142370D01*
X34290051Y6934488D01*
X34205010Y7140303D01*
X33812370Y7533629D01*
X33299100Y7746757D01*
X32743339Y7747242D01*
X32229697Y7535010D01*
X31836371Y7142370D01*
X31750051Y6934488D01*
X31665010Y7140303D01*
X31272370Y7533629D01*
X30759100Y7746757D01*
X30203339Y7747242D01*
X29689697Y7535010D01*
X29296371Y7142370D01*
X29210051Y6934488D01*
X29125010Y7140303D01*
X28732370Y7533629D01*
X28219100Y7746757D01*
X27663339Y7747242D01*
X27149697Y7535010D01*
X26756371Y7142370D01*
X26670051Y6934488D01*
X26585010Y7140303D01*
X26192370Y7533629D01*
X25679100Y7746757D01*
X25123339Y7747242D01*
X24609697Y7535010D01*
X24216371Y7142370D01*
X24136605Y6950273D01*
X24082397Y7081143D01*
X23840213Y7150608D01*
X23039605Y6350000D01*
X23053748Y6335857D01*
X22874143Y6156252D01*
X22860000Y6170395D01*
X22845858Y6156252D01*
X22666253Y6335857D01*
X22680395Y6350000D01*
X21879787Y7150608D01*
X21637603Y7081143D01*
X21450856Y6557698D01*
X21478638Y6002632D01*
X21494226Y5965000D01*
X16626296Y5965000D01*
X16605162Y6077317D01*
X16466090Y6293441D01*
X16384230Y6349374D01*
X16453441Y6393910D01*
X16598431Y6606110D01*
X16649440Y6858000D01*
X16649440Y7330213D01*
X22059392Y7330213D01*
X22860000Y6529605D01*
X23660608Y7330213D01*
X23591143Y7572397D01*
X23067698Y7759144D01*
X22512632Y7731362D01*
X22128857Y7572397D01*
X22059392Y7330213D01*
X16649440Y7330213D01*
X16649440Y8382000D01*
X16605162Y8617317D01*
X16466090Y8833441D01*
X16253890Y8978431D01*
X16002000Y9029440D01*
X14478000Y9029440D01*
X14242683Y8985162D01*
X14026559Y8846090D01*
X13881569Y8633890D01*
X13830560Y8382000D01*
X13830560Y6858000D01*
X13874838Y6622683D01*
X14013910Y6406559D01*
X14095770Y6350626D01*
X14026559Y6306090D01*
X13881569Y6093890D01*
X13830560Y5842000D01*
X13830560Y4318000D01*
X13874838Y4082683D01*
X14013910Y3866559D01*
X14226110Y3721569D01*
X14409124Y3684508D01*
X14056371Y3332370D01*
X13970051Y3124488D01*
X13885010Y3330303D01*
X13492370Y3723629D01*
X12979100Y3936757D01*
X12423339Y3937242D01*
X11909697Y3725010D01*
X11516371Y3332370D01*
X11430051Y3124488D01*
X11345010Y3330303D01*
X10952370Y3723629D01*
X10439100Y3936757D01*
X9883339Y3937242D01*
X9369697Y3725010D01*
X8976371Y3332370D01*
X8890051Y3124488D01*
X8805010Y3330303D01*
X8412370Y3723629D01*
X7899100Y3936757D01*
X7343339Y3937242D01*
X6829697Y3725010D01*
X6436371Y3332370D01*
X6350051Y3124488D01*
X6265010Y3330303D01*
X5872370Y3723629D01*
X5359100Y3936757D01*
X4803339Y3937242D01*
X4289697Y3725010D01*
X3896371Y3332370D01*
X3810051Y3124488D01*
X3725010Y3330303D01*
X3332370Y3723629D01*
X2819100Y3936757D01*
X2263339Y3937242D01*
X1749697Y3725010D01*
X1356371Y3332370D01*
X1276605Y3140273D01*
X1222397Y3271143D01*
X980213Y3340608D01*
X179605Y2540000D01*
X193748Y2525857D01*
X14143Y2346252D01*
X0Y2360395D01*
X-14142Y2346252D01*
X-193747Y2525857D01*
X-179605Y2540000D01*
X-980213Y3340608D01*
X-1222397Y3271143D01*
X-1409144Y2747698D01*
X-1381362Y2192632D01*
X-1365774Y2155000D01*
X-21589995Y2155000D01*
X-21590000Y2155001D01*
X-21928675Y2087633D01*
X-22215790Y1895790D01*
X-22215792Y1895787D01*
X-27794706Y-3683126D01*
X-28216661Y-3682758D01*
X-28730303Y-3894990D01*
X-29123629Y-4287630D01*
X-29209949Y-4495512D01*
X-29294990Y-4289697D01*
X-29687630Y-3896371D01*
X-30200900Y-3683243D01*
X-30756661Y-3682758D01*
X-31270303Y-3894990D01*
X-31663629Y-4287630D01*
X-31876757Y-4800900D01*
X-31877242Y-5356661D01*
X-33605000Y-5356661D01*
X-33605000Y3520213D01*
X-800608Y3520213D01*
X0Y2719605D01*
X800608Y3520213D01*
X731143Y3762397D01*
X207698Y3949144D01*
X-347368Y3921362D01*
X-731143Y3762397D01*
X-800608Y3520213D01*
X-33605000Y3520213D01*
X-33605000Y8382000D01*
X-4711440Y8382000D01*
X-4711440Y6858000D01*
X-4667162Y6622683D01*
X-4528090Y6406559D01*
X-4446230Y6350626D01*
X-4515441Y6306090D01*
X-4660431Y6093890D01*
X-4711440Y5842000D01*
X-4711440Y4318000D01*
X-4667162Y4082683D01*
X-4528090Y3866559D01*
X-4315890Y3721569D01*
X-4064000Y3670560D01*
X-2540000Y3670560D01*
X-2304683Y3714838D01*
X-2088559Y3853910D01*
X-1943569Y4066110D01*
X-1892560Y4318000D01*
X-1892560Y5842000D01*
X-1936838Y6077317D01*
X-2075910Y6293441D01*
X-2157770Y6349374D01*
X-2088559Y6393910D01*
X-1943569Y6606110D01*
X-1892560Y6858000D01*
X-1892560Y8382000D01*
X-1936838Y8617317D01*
X-2075910Y8833441D01*
X-2288110Y8978431D01*
X-2540000Y9029440D01*
X-4064000Y9029440D01*
X-4299317Y8985162D01*
X-4515441Y8846090D01*
X-4660431Y8633890D01*
X-4711440Y8382000D01*
X-33605000Y8382000D01*
X-33605000Y9475000D01*
X37415000Y9475000D01*
X37415000Y-9475000D01*
X37415000Y-9475000D01*
G37*
X37415000Y-9475000D02*
X-33605000Y-9475000D01*
X-33605000Y-5356661D01*
X-31877242Y-5356661D01*
X-31665010Y-5870303D01*
X-31272370Y-6263629D01*
X-31064488Y-6349949D01*
X-31270303Y-6434990D01*
X-31663629Y-6827630D01*
X-31876757Y-7340900D01*
X-31877242Y-7896661D01*
X-31665010Y-8410303D01*
X-31272370Y-8803629D01*
X-30759100Y-9016757D01*
X-30203339Y-9017242D01*
X-29689697Y-8805010D01*
X-29296371Y-8412370D01*
X-29210051Y-8204488D01*
X-29125010Y-8410303D01*
X-28732370Y-8803629D01*
X-28219100Y-9016757D01*
X-27663339Y-9017242D01*
X-27149697Y-8805010D01*
X-26756371Y-8412370D01*
X-26670051Y-8204488D01*
X-26585010Y-8410303D01*
X-26192370Y-8803629D01*
X-25679100Y-9016757D01*
X-25123339Y-9017242D01*
X-24609697Y-8805010D01*
X-24309163Y-8505000D01*
X-22860005Y-8505000D01*
X-22860000Y-8505001D01*
X-22577516Y-8448810D01*
X-22521325Y-8437633D01*
X-22234210Y-8245790D01*
X-21717095Y-7728675D01*
X-21717242Y-7896661D01*
X-21505010Y-8410303D01*
X-21112370Y-8803629D01*
X-20599100Y-9016757D01*
X-20043339Y-9017242D01*
X-19529697Y-8805010D01*
X-19136371Y-8412370D01*
X-19050051Y-8204488D01*
X-18965010Y-8410303D01*
X-18572370Y-8803629D01*
X-18059100Y-9016757D01*
X-17503339Y-9017242D01*
X-16989697Y-8805010D01*
X-16596371Y-8412370D01*
X-16510051Y-8204488D01*
X-16425010Y-8410303D01*
X-16032370Y-8803629D01*
X-15519100Y-9016757D01*
X-14963339Y-9017242D01*
X-14449697Y-8805010D01*
X-14056371Y-8412370D01*
X-13970051Y-8204488D01*
X-13885010Y-8410303D01*
X-13492370Y-8803629D01*
X-12979100Y-9016757D01*
X-12423339Y-9017242D01*
X-11909697Y-8805010D01*
X-11516371Y-8412370D01*
X-11430051Y-8204488D01*
X-11345010Y-8410303D01*
X-10952370Y-8803629D01*
X-10439100Y-9016757D01*
X-9883339Y-9017242D01*
X-9369697Y-8805010D01*
X-8976371Y-8412370D01*
X-8763243Y-7899100D01*
X-8762758Y-7343339D01*
X-8807523Y-7235000D01*
X-6716580Y-7235000D01*
X-5705792Y-8245787D01*
X-5705790Y-8245790D01*
X-5459577Y-8410303D01*
X-5418675Y-8437633D01*
X-5080000Y-8505001D01*
X-5079995Y-8505000D01*
X7619995Y-8505000D01*
X7620000Y-8505001D01*
X7902484Y-8448810D01*
X7958675Y-8437633D01*
X8245790Y-8245790D01*
X8245791Y-8245789D01*
X9923366Y-6568213D01*
X14439392Y-6568213D01*
X14508857Y-6810397D01*
X15032302Y-6997144D01*
X15587368Y-6969362D01*
X15971143Y-6810397D01*
X16040608Y-6568213D01*
X15240000Y-5767605D01*
X14439392Y-6568213D01*
X9923366Y-6568213D01*
X11111277Y-5380302D01*
X13830856Y-5380302D01*
X13858638Y-5935368D01*
X14017603Y-6319143D01*
X14259787Y-6388608D01*
X15060395Y-5588000D01*
X15419605Y-5588000D01*
X16220213Y-6388608D01*
X16462397Y-6319143D01*
X16575988Y-6000750D01*
X27305000Y-6000750D01*
X27305000Y-7111310D01*
X27401673Y-7344699D01*
X27580302Y-7523327D01*
X27813691Y-7620000D01*
X28924250Y-7620000D01*
X29083000Y-7461250D01*
X29083000Y-5842000D01*
X29337000Y-5842000D01*
X29337000Y-7461250D01*
X29495750Y-7620000D01*
X30606309Y-7620000D01*
X30839698Y-7523327D01*
X31018327Y-7344699D01*
X31115000Y-7111310D01*
X31115000Y-6000750D01*
X30956250Y-5842000D01*
X29337000Y-5842000D01*
X29083000Y-5842000D01*
X27463750Y-5842000D01*
X27305000Y-6000750D01*
X16575988Y-6000750D01*
X16649144Y-5795698D01*
X16621362Y-5240632D01*
X16462397Y-4856857D01*
X16220213Y-4787392D01*
X15419605Y-5588000D01*
X15060395Y-5588000D01*
X14259787Y-4787392D01*
X14017603Y-4856857D01*
X13830856Y-5380302D01*
X11111277Y-5380302D01*
X12463366Y-4028213D01*
X14439392Y-4028213D01*
X14508857Y-4270397D01*
X14632344Y-4314453D01*
X14508857Y-4365603D01*
X14439392Y-4607787D01*
X15240000Y-5408395D01*
X16040608Y-4607787D01*
X15971143Y-4365603D01*
X15847656Y-4321547D01*
X15854553Y-4318690D01*
X27305000Y-4318690D01*
X27305000Y-5429250D01*
X27463750Y-5588000D01*
X29083000Y-5588000D01*
X29083000Y-3968750D01*
X29337000Y-3968750D01*
X29337000Y-5588000D01*
X30956250Y-5588000D01*
X31115000Y-5429250D01*
X31115000Y-4318690D01*
X31018327Y-4085301D01*
X30839698Y-3906673D01*
X30606309Y-3810000D01*
X29495750Y-3810000D01*
X29337000Y-3968750D01*
X29083000Y-3968750D01*
X28924250Y-3810000D01*
X27813691Y-3810000D01*
X27580302Y-3906673D01*
X27401673Y-4085301D01*
X27305000Y-4318690D01*
X15854553Y-4318690D01*
X15971143Y-4270397D01*
X16040608Y-4028213D01*
X15240000Y-3227605D01*
X14439392Y-4028213D01*
X12463366Y-4028213D01*
X13930458Y-2561121D01*
X13830856Y-2840302D01*
X13858638Y-3395368D01*
X14017603Y-3779143D01*
X14259787Y-3848608D01*
X15060395Y-3048000D01*
X15419605Y-3048000D01*
X16220213Y-3848608D01*
X16462397Y-3779143D01*
X16649144Y-3255698D01*
X16621362Y-2700632D01*
X16462397Y-2316857D01*
X16220213Y-2247392D01*
X15419605Y-3048000D01*
X15060395Y-3048000D01*
X15046253Y-3033858D01*
X15225858Y-2854253D01*
X15240000Y-2868395D01*
X16040608Y-2067787D01*
X15971143Y-1825603D01*
X15447698Y-1638856D01*
X14892632Y-1666638D01*
X14777076Y-1714503D01*
X15094705Y-1396874D01*
X15516661Y-1397242D01*
X16030303Y-1185010D01*
X16423629Y-792370D01*
X16636757Y-279100D01*
X16637242Y276661D01*
X16425010Y790303D01*
X16032370Y1183629D01*
X15824488Y1269949D01*
X16030303Y1354990D01*
X16423629Y1747630D01*
X16636757Y2260900D01*
X16637242Y2816661D01*
X16425010Y3330303D01*
X16072167Y3683763D01*
X16237317Y3714838D01*
X16453441Y3853910D01*
X16598431Y4066110D01*
X16624532Y4195000D01*
X23763420Y4195000D01*
X32651595Y-4693174D01*
X32385332Y-5334410D01*
X32384670Y-6092265D01*
X32674078Y-6792686D01*
X33209495Y-7329039D01*
X33909410Y-7619668D01*
X34667265Y-7620330D01*
X35367686Y-7330922D01*
X35904039Y-6795505D01*
X36194668Y-6095590D01*
X36195330Y-5337735D01*
X35905922Y-4637314D01*
X35370505Y-4100961D01*
X34670590Y-3810332D01*
X34271563Y-3809983D01*
X25508675Y4952905D01*
X25676661Y4952758D01*
X26190303Y5164990D01*
X26583629Y5557630D01*
X26669949Y5765512D01*
X26754990Y5559697D01*
X27147630Y5166371D01*
X27660900Y4953243D01*
X28216661Y4952758D01*
X28730303Y5164990D01*
X29123629Y5557630D01*
X29209949Y5765512D01*
X29294990Y5559697D01*
X29687630Y5166371D01*
X30200900Y4953243D01*
X30756661Y4952758D01*
X31270303Y5164990D01*
X31663629Y5557630D01*
X31749949Y5765512D01*
X31834990Y5559697D01*
X32227630Y5166371D01*
X32740900Y4953243D01*
X33296661Y4952758D01*
X33810303Y5164990D01*
X34203629Y5557630D01*
X34289949Y5765512D01*
X34374990Y5559697D01*
X34767630Y5166371D01*
X35280900Y4953243D01*
X35836661Y4952758D01*
X36350303Y5164990D01*
X36743629Y5557630D01*
X36956757Y6070900D01*
X36957242Y6626661D01*
X36745010Y7140303D01*
X36352370Y7533629D01*
X35839100Y7746757D01*
X35283339Y7747242D01*
X34769697Y7535010D01*
X34376371Y7142370D01*
X34290051Y6934488D01*
X34205010Y7140303D01*
X33812370Y7533629D01*
X33299100Y7746757D01*
X32743339Y7747242D01*
X32229697Y7535010D01*
X31836371Y7142370D01*
X31750051Y6934488D01*
X31665010Y7140303D01*
X31272370Y7533629D01*
X30759100Y7746757D01*
X30203339Y7747242D01*
X29689697Y7535010D01*
X29296371Y7142370D01*
X29210051Y6934488D01*
X29125010Y7140303D01*
X28732370Y7533629D01*
X28219100Y7746757D01*
X27663339Y7747242D01*
X27149697Y7535010D01*
X26756371Y7142370D01*
X26670051Y6934488D01*
X26585010Y7140303D01*
X26192370Y7533629D01*
X25679100Y7746757D01*
X25123339Y7747242D01*
X24609697Y7535010D01*
X24216371Y7142370D01*
X24136605Y6950273D01*
X24082397Y7081143D01*
X23840213Y7150608D01*
X23039605Y6350000D01*
X23053748Y6335857D01*
X22874143Y6156252D01*
X22860000Y6170395D01*
X22845858Y6156252D01*
X22666253Y6335857D01*
X22680395Y6350000D01*
X21879787Y7150608D01*
X21637603Y7081143D01*
X21450856Y6557698D01*
X21478638Y6002632D01*
X21494226Y5965000D01*
X16626296Y5965000D01*
X16605162Y6077317D01*
X16466090Y6293441D01*
X16384230Y6349374D01*
X16453441Y6393910D01*
X16598431Y6606110D01*
X16649440Y6858000D01*
X16649440Y7330213D01*
X22059392Y7330213D01*
X22860000Y6529605D01*
X23660608Y7330213D01*
X23591143Y7572397D01*
X23067698Y7759144D01*
X22512632Y7731362D01*
X22128857Y7572397D01*
X22059392Y7330213D01*
X16649440Y7330213D01*
X16649440Y8382000D01*
X16605162Y8617317D01*
X16466090Y8833441D01*
X16253890Y8978431D01*
X16002000Y9029440D01*
X14478000Y9029440D01*
X14242683Y8985162D01*
X14026559Y8846090D01*
X13881569Y8633890D01*
X13830560Y8382000D01*
X13830560Y6858000D01*
X13874838Y6622683D01*
X14013910Y6406559D01*
X14095770Y6350626D01*
X14026559Y6306090D01*
X13881569Y6093890D01*
X13830560Y5842000D01*
X13830560Y4318000D01*
X13874838Y4082683D01*
X14013910Y3866559D01*
X14226110Y3721569D01*
X14409124Y3684508D01*
X14056371Y3332370D01*
X13970051Y3124488D01*
X13885010Y3330303D01*
X13492370Y3723629D01*
X12979100Y3936757D01*
X12423339Y3937242D01*
X11909697Y3725010D01*
X11516371Y3332370D01*
X11430051Y3124488D01*
X11345010Y3330303D01*
X10952370Y3723629D01*
X10439100Y3936757D01*
X9883339Y3937242D01*
X9369697Y3725010D01*
X8976371Y3332370D01*
X8890051Y3124488D01*
X8805010Y3330303D01*
X8412370Y3723629D01*
X7899100Y3936757D01*
X7343339Y3937242D01*
X6829697Y3725010D01*
X6436371Y3332370D01*
X6350051Y3124488D01*
X6265010Y3330303D01*
X5872370Y3723629D01*
X5359100Y3936757D01*
X4803339Y3937242D01*
X4289697Y3725010D01*
X3896371Y3332370D01*
X3810051Y3124488D01*
X3725010Y3330303D01*
X3332370Y3723629D01*
X2819100Y3936757D01*
X2263339Y3937242D01*
X1749697Y3725010D01*
X1356371Y3332370D01*
X1276605Y3140273D01*
X1222397Y3271143D01*
X980213Y3340608D01*
X179605Y2540000D01*
X193748Y2525857D01*
X14143Y2346252D01*
X0Y2360395D01*
X-14142Y2346252D01*
X-193747Y2525857D01*
X-179605Y2540000D01*
X-980213Y3340608D01*
X-1222397Y3271143D01*
X-1409144Y2747698D01*
X-1381362Y2192632D01*
X-1365774Y2155000D01*
X-21589995Y2155000D01*
X-21590000Y2155001D01*
X-21928675Y2087633D01*
X-22215790Y1895790D01*
X-22215792Y1895787D01*
X-27794706Y-3683126D01*
X-28216661Y-3682758D01*
X-28730303Y-3894990D01*
X-29123629Y-4287630D01*
X-29209949Y-4495512D01*
X-29294990Y-4289697D01*
X-29687630Y-3896371D01*
X-30200900Y-3683243D01*
X-30756661Y-3682758D01*
X-31270303Y-3894990D01*
X-31663629Y-4287630D01*
X-31876757Y-4800900D01*
X-31877242Y-5356661D01*
X-33605000Y-5356661D01*
X-33605000Y3520213D01*
X-800608Y3520213D01*
X0Y2719605D01*
X800608Y3520213D01*
X731143Y3762397D01*
X207698Y3949144D01*
X-347368Y3921362D01*
X-731143Y3762397D01*
X-800608Y3520213D01*
X-33605000Y3520213D01*
X-33605000Y8382000D01*
X-4711440Y8382000D01*
X-4711440Y6858000D01*
X-4667162Y6622683D01*
X-4528090Y6406559D01*
X-4446230Y6350626D01*
X-4515441Y6306090D01*
X-4660431Y6093890D01*
X-4711440Y5842000D01*
X-4711440Y4318000D01*
X-4667162Y4082683D01*
X-4528090Y3866559D01*
X-4315890Y3721569D01*
X-4064000Y3670560D01*
X-2540000Y3670560D01*
X-2304683Y3714838D01*
X-2088559Y3853910D01*
X-1943569Y4066110D01*
X-1892560Y4318000D01*
X-1892560Y5842000D01*
X-1936838Y6077317D01*
X-2075910Y6293441D01*
X-2157770Y6349374D01*
X-2088559Y6393910D01*
X-1943569Y6606110D01*
X-1892560Y6858000D01*
X-1892560Y8382000D01*
X-1936838Y8617317D01*
X-2075910Y8833441D01*
X-2288110Y8978431D01*
X-2540000Y9029440D01*
X-4064000Y9029440D01*
X-4299317Y8985162D01*
X-4515441Y8846090D01*
X-4660431Y8633890D01*
X-4711440Y8382000D01*
X-33605000Y8382000D01*
X-33605000Y9475000D01*
X37415000Y9475000D01*
X37415000Y-9475000D01*
G36*
X12591515Y-1396906D02*
X7253420Y-6735000D01*
X-2549231Y-6735000D01*
X-2501392Y-6568213D01*
X-3302000Y-5767605D01*
X-4102608Y-6568213D01*
X-4054769Y-6735000D01*
X-4713421Y-6735000D01*
X-5724210Y-5724210D01*
X-5751778Y-5705790D01*
X-6011325Y-5532367D01*
X-6067516Y-5521190D01*
X-6350000Y-5464999D01*
X-6350005Y-5465000D01*
X-8807216Y-5465000D01*
X-8772047Y-5380302D01*
X-4711144Y-5380302D01*
X-4683362Y-5935368D01*
X-4524397Y-6319143D01*
X-4282213Y-6388608D01*
X-3481605Y-5588000D01*
X-3122395Y-5588000D01*
X-2321787Y-6388608D01*
X-2079603Y-6319143D01*
X-1892856Y-5795698D01*
X-1920638Y-5240632D01*
X-2079603Y-4856857D01*
X-2321787Y-4787392D01*
X-3122395Y-5588000D01*
X-3481605Y-5588000D01*
X-4282213Y-4787392D01*
X-4524397Y-4856857D01*
X-4711144Y-5380302D01*
X-8772047Y-5380302D01*
X-8763243Y-5359100D01*
X-8762758Y-4803339D01*
X-8974990Y-4289697D01*
X-9236017Y-4028213D01*
X-4102608Y-4028213D01*
X-4033143Y-4270397D01*
X-3909656Y-4314453D01*
X-4033143Y-4365603D01*
X-4102608Y-4607787D01*
X-3302000Y-5408395D01*
X-2501392Y-4607787D01*
X-2570857Y-4365603D01*
X-2694344Y-4321547D01*
X-2570857Y-4270397D01*
X-2501392Y-4028213D01*
X-3302000Y-3227605D01*
X-4102608Y-4028213D01*
X-9236017Y-4028213D01*
X-9367630Y-3896371D01*
X-9880900Y-3683243D01*
X-10436661Y-3682758D01*
X-10950303Y-3894990D01*
X-11343629Y-4287630D01*
X-11429949Y-4495512D01*
X-11514990Y-4289697D01*
X-11907630Y-3896371D01*
X-12420900Y-3683243D01*
X-12976661Y-3682758D01*
X-13490303Y-3894990D01*
X-13883629Y-4287630D01*
X-13969949Y-4495512D01*
X-14054990Y-4289697D01*
X-14447630Y-3896371D01*
X-14960900Y-3683243D01*
X-15516661Y-3682758D01*
X-16030303Y-3894990D01*
X-16423629Y-4287630D01*
X-16509949Y-4495512D01*
X-16594990Y-4289697D01*
X-16987630Y-3896371D01*
X-17500900Y-3683243D01*
X-18056661Y-3682758D01*
X-18570303Y-3894990D01*
X-18963629Y-4287630D01*
X-19049949Y-4495512D01*
X-19134990Y-4289697D01*
X-19527630Y-3896371D01*
X-20040900Y-3683243D01*
X-20211515Y-3683094D01*
X-18683421Y-2155000D01*
X-4374608Y-2155000D01*
X-4282215Y-2247393D01*
X-4524397Y-2316857D01*
X-4711144Y-2840302D01*
X-4683362Y-3395368D01*
X-4524397Y-3779143D01*
X-4282213Y-3848608D01*
X-3481605Y-3048000D01*
X-3495747Y-3033858D01*
X-3316142Y-2854253D01*
X-3302000Y-2868395D01*
X-3287857Y-2854253D01*
X-3108252Y-3033858D01*
X-3122395Y-3048000D01*
X-2321787Y-3848608D01*
X-2079603Y-3779143D01*
X-1892856Y-3255698D01*
X-1920638Y-2700632D01*
X-2079603Y-2316857D01*
X-2321785Y-2247393D01*
X-2229392Y-2155000D01*
X11429995Y-2155000D01*
X11430000Y-2155001D01*
X11712484Y-2098810D01*
X11768675Y-2087633D01*
X12055790Y-1895790D01*
X12554706Y-1396874D01*
X12591515Y-1396906D01*
X12591515Y-1396906D01*
G37*
X12591515Y-1396906D02*
X7253420Y-6735000D01*
X-2549231Y-6735000D01*
X-2501392Y-6568213D01*
X-3302000Y-5767605D01*
X-4102608Y-6568213D01*
X-4054769Y-6735000D01*
X-4713421Y-6735000D01*
X-5724210Y-5724210D01*
X-5751778Y-5705790D01*
X-6011325Y-5532367D01*
X-6067516Y-5521190D01*
X-6350000Y-5464999D01*
X-6350005Y-5465000D01*
X-8807216Y-5465000D01*
X-8772047Y-5380302D01*
X-4711144Y-5380302D01*
X-4683362Y-5935368D01*
X-4524397Y-6319143D01*
X-4282213Y-6388608D01*
X-3481605Y-5588000D01*
X-3122395Y-5588000D01*
X-2321787Y-6388608D01*
X-2079603Y-6319143D01*
X-1892856Y-5795698D01*
X-1920638Y-5240632D01*
X-2079603Y-4856857D01*
X-2321787Y-4787392D01*
X-3122395Y-5588000D01*
X-3481605Y-5588000D01*
X-4282213Y-4787392D01*
X-4524397Y-4856857D01*
X-4711144Y-5380302D01*
X-8772047Y-5380302D01*
X-8763243Y-5359100D01*
X-8762758Y-4803339D01*
X-8974990Y-4289697D01*
X-9236017Y-4028213D01*
X-4102608Y-4028213D01*
X-4033143Y-4270397D01*
X-3909656Y-4314453D01*
X-4033143Y-4365603D01*
X-4102608Y-4607787D01*
X-3302000Y-5408395D01*
X-2501392Y-4607787D01*
X-2570857Y-4365603D01*
X-2694344Y-4321547D01*
X-2570857Y-4270397D01*
X-2501392Y-4028213D01*
X-3302000Y-3227605D01*
X-4102608Y-4028213D01*
X-9236017Y-4028213D01*
X-9367630Y-3896371D01*
X-9880900Y-3683243D01*
X-10436661Y-3682758D01*
X-10950303Y-3894990D01*
X-11343629Y-4287630D01*
X-11429949Y-4495512D01*
X-11514990Y-4289697D01*
X-11907630Y-3896371D01*
X-12420900Y-3683243D01*
X-12976661Y-3682758D01*
X-13490303Y-3894990D01*
X-13883629Y-4287630D01*
X-13969949Y-4495512D01*
X-14054990Y-4289697D01*
X-14447630Y-3896371D01*
X-14960900Y-3683243D01*
X-15516661Y-3682758D01*
X-16030303Y-3894990D01*
X-16423629Y-4287630D01*
X-16509949Y-4495512D01*
X-16594990Y-4289697D01*
X-16987630Y-3896371D01*
X-17500900Y-3683243D01*
X-18056661Y-3682758D01*
X-18570303Y-3894990D01*
X-18963629Y-4287630D01*
X-19049949Y-4495512D01*
X-19134990Y-4289697D01*
X-19527630Y-3896371D01*
X-20040900Y-3683243D01*
X-20211515Y-3683094D01*
X-18683421Y-2155000D01*
X-4374608Y-2155000D01*
X-4282215Y-2247393D01*
X-4524397Y-2316857D01*
X-4711144Y-2840302D01*
X-4683362Y-3395368D01*
X-4524397Y-3779143D01*
X-4282213Y-3848608D01*
X-3481605Y-3048000D01*
X-3495747Y-3033858D01*
X-3316142Y-2854253D01*
X-3302000Y-2868395D01*
X-3287857Y-2854253D01*
X-3108252Y-3033858D01*
X-3122395Y-3048000D01*
X-2321787Y-3848608D01*
X-2079603Y-3779143D01*
X-1892856Y-3255698D01*
X-1920638Y-2700632D01*
X-2079603Y-2316857D01*
X-2321785Y-2247393D01*
X-2229392Y-2155000D01*
X11429995Y-2155000D01*
X11430000Y-2155001D01*
X11712484Y-2098810D01*
X11768675Y-2087633D01*
X12055790Y-1895790D01*
X12554706Y-1396874D01*
X12591515Y-1396906D01*
G36*
X-1409144Y207698D02*
X-1381362Y-347368D01*
X-1365774Y-385000D01*
X-19049995Y-385000D01*
X-19050000Y-384999D01*
X-19332484Y-441190D01*
X-19388675Y-452367D01*
X-19675790Y-644210D01*
X-19675792Y-644213D01*
X-24006511Y-4974931D01*
X-24018638Y-4732632D01*
X-24177603Y-4348857D01*
X-24419787Y-4279392D01*
X-25220395Y-5080000D01*
X-25206252Y-5094143D01*
X-25385857Y-5273748D01*
X-25400000Y-5259605D01*
X-25414142Y-5273748D01*
X-25593747Y-5094143D01*
X-25579605Y-5080000D01*
X-25593747Y-5065858D01*
X-25414142Y-4886253D01*
X-25400000Y-4900395D01*
X-24599392Y-4099787D01*
X-24668857Y-3857603D01*
X-25192302Y-3670856D01*
X-25283859Y-3675439D01*
X-21223421Y385000D01*
X-1345889Y385000D01*
X-1409144Y207698D01*
X-1409144Y207698D01*
G37*
X-1409144Y207698D02*
X-1381362Y-347368D01*
X-1365774Y-385000D01*
X-19049995Y-385000D01*
X-19050000Y-384999D01*
X-19332484Y-441190D01*
X-19388675Y-452367D01*
X-19675790Y-644210D01*
X-19675792Y-644213D01*
X-24006511Y-4974931D01*
X-24018638Y-4732632D01*
X-24177603Y-4348857D01*
X-24419787Y-4279392D01*
X-25220395Y-5080000D01*
X-25206252Y-5094143D01*
X-25385857Y-5273748D01*
X-25400000Y-5259605D01*
X-25414142Y-5273748D01*
X-25593747Y-5094143D01*
X-25579605Y-5080000D01*
X-25593747Y-5065858D01*
X-25414142Y-4886253D01*
X-25400000Y-4900395D01*
X-24599392Y-4099787D01*
X-24668857Y-3857603D01*
X-25192302Y-3670856D01*
X-25283859Y-3675439D01*
X-21223421Y385000D01*
X-1345889Y385000D01*
X-1409144Y207698D01*
G36*
X193748Y14142D02*
X179605Y0D01*
X193748Y-14143D01*
X14143Y-193748D01*
X0Y-179605D01*
X-14142Y-193748D01*
X-193747Y-14143D01*
X-179605Y0D01*
X-193747Y14142D01*
X-14142Y193747D01*
X0Y179605D01*
X14143Y193747D01*
X193748Y14142D01*
X193748Y14142D01*
G37*
X193748Y14142D02*
X179605Y0D01*
X193748Y-14143D01*
X14143Y-193748D01*
X0Y-179605D01*
X-14142Y-193748D01*
X-193747Y-14143D01*
X-179605Y0D01*
X-193747Y14142D01*
X-14142Y193747D01*
X0Y179605D01*
X14143Y193747D01*
X193748Y14142D01*
M02*
