G04 #@! TF.FileFunction,Legend,Top*
%FSLAX46Y46*%
G04 Gerber Fmt 4.6, Leading zero omitted, Abs format (unit mm)*
G04 Created by KiCad (PCBNEW no-vcs-found-product) date Wed 28 Oct 2015 12:10:27 PM EDT*
%MOMM*%
G01*
G04 APERTURE LIST*
%ADD10C,0.150000*%
%ADD11C,0.300000*%
G04 APERTURE END LIST*
D10*
D11*
X33075715Y3061429D02*
X32218572Y3061429D01*
X32647144Y3061429D02*
X32647144Y4561429D01*
X32504287Y4347143D01*
X32361429Y4204286D01*
X32218572Y4132857D01*
X33647143Y4418571D02*
X33718572Y4490000D01*
X33861429Y4561429D01*
X34218572Y4561429D01*
X34361429Y4490000D01*
X34432858Y4418571D01*
X34504286Y4275714D01*
X34504286Y4132857D01*
X34432858Y3918571D01*
X33575715Y3061429D01*
X34504286Y3061429D01*
X35147143Y3632857D02*
X36290000Y3632857D01*
X32504286Y2018571D02*
X32575715Y2090000D01*
X32718572Y2161429D01*
X33075715Y2161429D01*
X33218572Y2090000D01*
X33290001Y2018571D01*
X33361429Y1875714D01*
X33361429Y1732857D01*
X33290001Y1518571D01*
X32432858Y661429D01*
X33361429Y661429D01*
X34218572Y1518571D02*
X34075714Y1590000D01*
X34004286Y1661429D01*
X33932857Y1804286D01*
X33932857Y1875714D01*
X34004286Y2018571D01*
X34075714Y2090000D01*
X34218572Y2161429D01*
X34504286Y2161429D01*
X34647143Y2090000D01*
X34718572Y2018571D01*
X34790000Y1875714D01*
X34790000Y1804286D01*
X34718572Y1661429D01*
X34647143Y1590000D01*
X34504286Y1518571D01*
X34218572Y1518571D01*
X34075714Y1447143D01*
X34004286Y1375714D01*
X33932857Y1232857D01*
X33932857Y947143D01*
X34004286Y804286D01*
X34075714Y732857D01*
X34218572Y661429D01*
X34504286Y661429D01*
X34647143Y732857D01*
X34718572Y804286D01*
X34790000Y947143D01*
X34790000Y1232857D01*
X34718572Y1375714D01*
X34647143Y1447143D01*
X34504286Y1518571D01*
X35218571Y2161429D02*
X35718571Y661429D01*
X36218571Y2161429D01*
X27432143Y2020000D02*
X27289286Y2091429D01*
X27075000Y2091429D01*
X26860715Y2020000D01*
X26717857Y1877143D01*
X26646429Y1734286D01*
X26575000Y1448571D01*
X26575000Y1234286D01*
X26646429Y948571D01*
X26717857Y805714D01*
X26860715Y662857D01*
X27075000Y591429D01*
X27217857Y591429D01*
X27432143Y662857D01*
X27503572Y734286D01*
X27503572Y1234286D01*
X27217857Y1234286D01*
X28146429Y591429D02*
X28146429Y2091429D01*
X29003572Y591429D01*
X29003572Y2091429D01*
X29717858Y591429D02*
X29717858Y2091429D01*
X30075001Y2091429D01*
X30289286Y2020000D01*
X30432144Y1877143D01*
X30503572Y1734286D01*
X30575001Y1448571D01*
X30575001Y1234286D01*
X30503572Y948571D01*
X30432144Y805714D01*
X30289286Y662857D01*
X30075001Y591429D01*
X29717858Y591429D01*
D10*
X3540000Y6105000D02*
X1540000Y6105000D01*
X1540000Y4055000D02*
X3540000Y4055000D01*
X8695000Y-4080000D02*
X8695000Y-6080000D01*
X6545000Y-6080000D02*
X6545000Y-4080000D01*
X1540000Y-2100000D02*
X3540000Y-2100000D01*
X3540000Y-4250000D02*
X1540000Y-4250000D01*
X2373334Y7022857D02*
X2325715Y6975238D01*
X2182858Y6927619D01*
X2087620Y6927619D01*
X1944762Y6975238D01*
X1849524Y7070476D01*
X1801905Y7165714D01*
X1754286Y7356190D01*
X1754286Y7499048D01*
X1801905Y7689524D01*
X1849524Y7784762D01*
X1944762Y7880000D01*
X2087620Y7927619D01*
X2182858Y7927619D01*
X2325715Y7880000D01*
X2373334Y7832381D01*
X3325715Y6927619D02*
X2754286Y6927619D01*
X3040000Y6927619D02*
X3040000Y7927619D01*
X2944762Y7784762D01*
X2849524Y7689524D01*
X2754286Y7641905D01*
X5772381Y-5246666D02*
X5296190Y-5580000D01*
X5772381Y-5818095D02*
X4772381Y-5818095D01*
X4772381Y-5437142D01*
X4820000Y-5341904D01*
X4867619Y-5294285D01*
X4962857Y-5246666D01*
X5105714Y-5246666D01*
X5200952Y-5294285D01*
X5248571Y-5341904D01*
X5296190Y-5437142D01*
X5296190Y-5818095D01*
X5772381Y-4294285D02*
X5772381Y-4865714D01*
X5772381Y-4580000D02*
X4772381Y-4580000D01*
X4915238Y-4675238D01*
X5010476Y-4770476D01*
X5058095Y-4865714D01*
X2373334Y-5927381D02*
X2040000Y-5451190D01*
X1801905Y-5927381D02*
X1801905Y-4927381D01*
X2182858Y-4927381D01*
X2278096Y-4975000D01*
X2325715Y-5022619D01*
X2373334Y-5117857D01*
X2373334Y-5260714D01*
X2325715Y-5355952D01*
X2278096Y-5403571D01*
X2182858Y-5451190D01*
X1801905Y-5451190D01*
X2754286Y-5022619D02*
X2801905Y-4975000D01*
X2897143Y-4927381D01*
X3135239Y-4927381D01*
X3230477Y-4975000D01*
X3278096Y-5022619D01*
X3325715Y-5117857D01*
X3325715Y-5213095D01*
X3278096Y-5355952D01*
X2706667Y-5927381D01*
X3325715Y-5927381D01*
M02*
