M48
;DRILL file {KiCad no-vcs-found-product} date Wed 28 Oct 2015 12:10:24 PM EDT
;FORMAT={-:-/ absolute / metric / decimal}
FMAT,2
METRIC,TZ
T1C1.016
T2C1.524
%
G90
G05
M71
T1
X-30.48Y-5.08
X-30.48Y-7.62
X-27.94Y-5.08
X-27.94Y-7.62
X-25.4Y-5.08
X-25.4Y-7.62
X-20.32Y-5.08
X-20.32Y-7.62
X-17.78Y-5.08
X-17.78Y-7.62
X-15.24Y-5.08
X-15.24Y-7.62
X-12.7Y-5.08
X-12.7Y-7.62
X-10.16Y-5.08
X-10.16Y-7.62
X-3.302Y7.62
X-3.302Y5.08
X-3.302Y-3.048
X-3.302Y-5.588
X0.Y2.54
X0.Y0.
X2.54Y2.54
X2.54Y0.
X5.08Y2.54
X5.08Y0.
X7.62Y2.54
X7.62Y0.
X10.16Y2.54
X10.16Y0.
X12.7Y2.54
X12.7Y0.
X15.24Y7.62
X15.24Y5.08
X15.24Y2.54
X15.24Y0.
X15.24Y-3.048
X15.24Y-5.588
X22.86Y6.35
X25.4Y6.35
X27.94Y6.35
X30.48Y6.35
X33.02Y6.35
X35.56Y6.35
T2
X29.21Y-5.715
X34.29Y-5.715
T0
M30
