G04 #@! TF.FileFunction,Legend,Bot*
%FSLAX46Y46*%
G04 Gerber Fmt 4.6, Leading zero omitted, Abs format (unit mm)*
G04 Created by KiCad (PCBNEW no-vcs-found-product) date Wed 28 Oct 2015 12:10:27 PM EDT*
%MOMM*%
G01*
G04 APERTURE LIST*
%ADD10C,0.150000*%
%ADD11C,0.152400*%
%ADD12C,0.203200*%
G04 APERTURE END LIST*
D10*
X-1270000Y-1270000D02*
X36830000Y-1270000D01*
X-1270000Y3810000D02*
X36830000Y3810000D01*
X36830000Y5080000D02*
X36830000Y7620000D01*
X36830000Y7620000D02*
X21590000Y7620000D01*
X21590000Y7620000D02*
X21590000Y5080000D01*
X21590000Y5080000D02*
X36830000Y5080000D01*
X-1270000Y3810000D02*
X-1270000Y-1270000D01*
X-16510000Y-8890000D02*
X-21590000Y-8890000D01*
X-21590000Y-8890000D02*
X-21590000Y-3810000D01*
X-21590000Y-3810000D02*
X-8890000Y-3810000D01*
X-8890000Y-3810000D02*
X-8890000Y-8890000D01*
X-8890000Y-8890000D02*
X-11430000Y-8890000D01*
X-31750000Y-3810000D02*
X-24130000Y-3810000D01*
X-24130000Y-3810000D02*
X-24130000Y-8890000D01*
X-24130000Y-8890000D02*
X-31750000Y-8890000D01*
X-31750000Y-8890000D02*
X-31750000Y-3810000D01*
D11*
X-16510000Y-8890000D02*
X-16510000Y-6350000D01*
X-16510000Y-6350000D02*
X-11430000Y-6350000D01*
X-11430000Y-6350000D02*
X-11430000Y-8890000D01*
X-11430000Y-8890000D02*
X-16510000Y-8890000D01*
D10*
X36830000Y-3175000D02*
X26670000Y-3175000D01*
X36830000Y-1905000D02*
X36830000Y-9525000D01*
X36830000Y-9525000D02*
X26670000Y-9525000D01*
X26670000Y-9525000D02*
X26670000Y-1905000D01*
X26670000Y-1905000D02*
X36830000Y-1905000D01*
X17018000Y9398000D02*
X-5080000Y9398000D01*
X-5080000Y9398000D02*
X-5080000Y-7366000D01*
X-5080000Y-7366000D02*
X17018000Y-7366000D01*
X17018000Y-7366000D02*
X17018000Y9398000D01*
D11*
X20120428Y5134429D02*
X20011571Y5098143D01*
X19975286Y5061857D01*
X19939000Y4989286D01*
X19939000Y4880429D01*
X19975286Y4807857D01*
X20011571Y4771571D01*
X20084143Y4735286D01*
X20374428Y4735286D01*
X20374428Y5497286D01*
X20120428Y5497286D01*
X20047857Y5461000D01*
X20011571Y5424714D01*
X19975286Y5352143D01*
X19975286Y5279571D01*
X20011571Y5207000D01*
X20047857Y5170714D01*
X20120428Y5134429D01*
X20374428Y5134429D01*
X19358428Y5134429D02*
X19249571Y5098143D01*
X19213286Y5061857D01*
X19177000Y4989286D01*
X19177000Y4880429D01*
X19213286Y4807857D01*
X19249571Y4771571D01*
X19322143Y4735286D01*
X19612428Y4735286D01*
X19612428Y5497286D01*
X19358428Y5497286D01*
X19285857Y5461000D01*
X19249571Y5424714D01*
X19213286Y5352143D01*
X19213286Y5279571D01*
X19249571Y5207000D01*
X19285857Y5170714D01*
X19358428Y5134429D01*
X19612428Y5134429D01*
X18596428Y5134429D02*
X18487571Y5098143D01*
X18451286Y5061857D01*
X18415000Y4989286D01*
X18415000Y4880429D01*
X18451286Y4807857D01*
X18487571Y4771571D01*
X18560143Y4735286D01*
X18850428Y4735286D01*
X18850428Y5497286D01*
X18596428Y5497286D01*
X18523857Y5461000D01*
X18487571Y5424714D01*
X18451286Y5352143D01*
X18451286Y5279571D01*
X18487571Y5207000D01*
X18523857Y5170714D01*
X18596428Y5134429D01*
X18850428Y5134429D01*
X17689286Y4735286D02*
X18124714Y4735286D01*
X17907000Y4735286D02*
X17907000Y5497286D01*
X17979571Y5388429D01*
X18052143Y5315857D01*
X18124714Y5279571D01*
X-22243144Y-6694714D02*
X-22243144Y-5932714D01*
X-22497144Y-6477000D01*
X-22751144Y-5932714D01*
X-22751144Y-6694714D01*
X-23513143Y-6694714D02*
X-23077715Y-6694714D01*
X-23295429Y-6694714D02*
X-23295429Y-5932714D01*
X-23222858Y-6041571D01*
X-23150286Y-6114143D01*
X-23077715Y-6150429D01*
D10*
X32488095Y-11247381D02*
X32488095Y-10247381D01*
X32107142Y-10247381D01*
X32011904Y-10295000D01*
X31964285Y-10342619D01*
X31916666Y-10437857D01*
X31916666Y-10580714D01*
X31964285Y-10675952D01*
X32011904Y-10723571D01*
X32107142Y-10771190D01*
X32488095Y-10771190D01*
X30964285Y-11247381D02*
X31535714Y-11247381D01*
X31250000Y-11247381D02*
X31250000Y-10247381D01*
X31345238Y-10390238D01*
X31440476Y-10485476D01*
X31535714Y-10533095D01*
D12*
X6870095Y-1082524D02*
X6870095Y-2110619D01*
X6821714Y-2231571D01*
X6773333Y-2292048D01*
X6676571Y-2352524D01*
X6483048Y-2352524D01*
X6386286Y-2292048D01*
X6337905Y-2231571D01*
X6289524Y-2110619D01*
X6289524Y-1082524D01*
X5273524Y-2352524D02*
X5854095Y-2352524D01*
X5563809Y-2352524D02*
X5563809Y-1082524D01*
X5660571Y-1263952D01*
X5757333Y-1384905D01*
X5854095Y-1445381D01*
X8140095Y2842381D02*
X8140095Y3858381D01*
X7898190Y3858381D01*
X7753048Y3810000D01*
X7656286Y3713238D01*
X7607905Y3616476D01*
X7559524Y3422952D01*
X7559524Y3277810D01*
X7607905Y3084286D01*
X7656286Y2987524D01*
X7753048Y2890762D01*
X7898190Y2842381D01*
X8140095Y2842381D01*
X6543524Y2939143D02*
X6591905Y2890762D01*
X6737048Y2842381D01*
X6833810Y2842381D01*
X6978952Y2890762D01*
X7075714Y2987524D01*
X7124095Y3084286D01*
X7172476Y3277810D01*
X7172476Y3422952D01*
X7124095Y3616476D01*
X7075714Y3713238D01*
X6978952Y3810000D01*
X6833810Y3858381D01*
X6737048Y3858381D01*
X6591905Y3810000D01*
X6543524Y3761619D01*
X6108095Y2842381D02*
X6108095Y3858381D01*
X5866190Y3858381D01*
X5721048Y3810000D01*
X5624286Y3713238D01*
X5575905Y3616476D01*
X5527524Y3422952D01*
X5527524Y3277810D01*
X5575905Y3084286D01*
X5624286Y2987524D01*
X5721048Y2890762D01*
X5866190Y2842381D01*
X6108095Y2842381D01*
X4511524Y2939143D02*
X4559905Y2890762D01*
X4705048Y2842381D01*
X4801810Y2842381D01*
X4946952Y2890762D01*
X5043714Y2987524D01*
X5092095Y3084286D01*
X5140476Y3277810D01*
X5140476Y3422952D01*
X5092095Y3616476D01*
X5043714Y3713238D01*
X4946952Y3810000D01*
X4801810Y3858381D01*
X4705048Y3858381D01*
X4559905Y3810000D01*
X4511524Y3761619D01*
M02*
